<svg width="24" height="25" viewBox="0 0 24 25" fill="none" xmlns="http://www.w3.org/2000/svg">
<g id="Img">
<path id="Vector" d="M19.7813 18.6275H4.21875C4.11632 18.6275 4.01489 18.6477 3.92026 18.6869C3.82562 18.7261 3.73964 18.7835 3.66721 18.856C3.59478 18.9284 3.53732 19.0144 3.49812 19.109C3.45893 19.2036 3.43875 19.3051 3.43875 19.4075C3.43875 19.5099 3.45893 19.6114 3.49812 19.706C3.53732 19.8006 3.59478 19.8866 3.66721 19.959C3.73964 20.0315 3.82562 20.0889 3.92026 20.1281C4.01489 20.1673 4.11632 20.1875 4.21875 20.1875H19.7813C19.8837 20.1875 19.9851 20.1673 20.0797 20.1281C20.1744 20.0889 20.2604 20.0315 20.3328 19.959C20.4052 19.8866 20.4627 19.8006 20.5019 19.706C20.5411 19.6114 20.5613 19.5099 20.5613 19.4075C20.5613 19.3051 20.5411 19.2036 20.5019 19.109C20.4627 19.0144 20.4052 18.9284 20.3328 18.856C20.2604 18.7835 20.1744 18.7261 20.0797 18.6869C19.9851 18.6477 19.8837 18.6275 19.7813 18.6275Z" fill="#E6E6E6"/>
<path id="Vector_2" d="M19.7813 11.5325H4.21875C4.11632 11.5325 4.01489 11.5526 3.92026 11.5918C3.82562 11.631 3.73964 11.6885 3.66721 11.7609C3.59478 11.8334 3.53732 11.9193 3.49812 12.014C3.45893 12.1086 3.43875 12.21 3.43875 12.3125C3.43875 12.4149 3.45893 12.5163 3.49812 12.611C3.53732 12.7056 3.59478 12.7916 3.66721 12.864C3.73964 12.9364 3.82562 12.9939 3.92026 13.0331C4.01489 13.0723 4.11632 13.0925 4.21875 13.0925H19.7813C19.9881 13.0925 20.1865 13.0103 20.3328 12.864C20.4791 12.7177 20.5613 12.5193 20.5613 12.3125C20.5613 12.1056 20.4791 11.9072 20.3328 11.7609C20.1865 11.6146 19.9881 11.5325 19.7813 11.5325Z" fill="#E6E6E6"/>
<path id="Vector_3" d="M4.21875 5.9975H19.7813C19.9881 5.9975 20.1865 5.91532 20.3328 5.76904C20.4791 5.62276 20.5613 5.42437 20.5613 5.2175C20.5613 5.01063 20.4791 4.81223 20.3328 4.66596C20.1865 4.51968 19.9881 4.4375 19.7813 4.4375H4.21875C4.01188 4.4375 3.81349 4.51968 3.66721 4.66596C3.52093 4.81223 3.43875 5.01063 3.43875 5.2175C3.43875 5.42437 3.52093 5.62276 3.66721 5.76904C3.81349 5.91532 4.01188 5.9975 4.21875 5.9975Z" fill="#E6E6E6"/>
</g>
</svg>
