<svg width="25" height="25" viewBox="0 0 25 25" fill="none" xmlns="http://www.w3.org/2000/svg">
<g id="Img">
<path id="Vector" d="M21.3775 19.9588L16.5625 15.125C17.6755 13.6683 18.1916 11.8422 18.0058 10.0184C17.82 8.19464 16.9461 6.51019 15.5622 5.30794C14.1782 4.10568 12.3881 3.47597 10.5563 3.54698C8.72439 3.61799 6.98843 4.38437 5.70168 5.69015C4.41493 6.99593 3.67412 8.74297 3.63002 10.5757C3.58592 12.4084 4.24184 14.189 5.46429 15.5552C6.68674 16.9214 8.38384 17.7704 10.2102 17.9294C12.0365 18.0884 13.8548 17.5456 15.295 16.4113L20.1025 21.2338C20.1856 21.3186 20.2848 21.386 20.3942 21.4319C20.5037 21.4779 20.6213 21.5016 20.74 21.5016C20.8587 21.5016 20.9763 21.4779 21.0857 21.4319C21.1952 21.386 21.2944 21.3186 21.3775 21.2338C21.5451 21.0639 21.6391 20.8349 21.6391 20.5963C21.6391 20.3576 21.5451 20.1286 21.3775 19.9588ZM4.83999 10.73C4.84518 9.54445 5.20148 8.38701 5.86391 7.40377C6.52634 6.42053 7.46522 5.65559 8.56202 5.20548C9.65883 4.75538 10.8644 4.6403 12.0265 4.87477C13.1887 5.10923 14.2553 5.68274 15.0918 6.52289C15.9283 7.36304 16.4972 8.43217 16.7266 9.59534C16.9559 10.7585 16.8356 11.9636 16.3807 13.0584C15.9258 14.1532 15.1568 15.0887 14.1707 15.7469C13.1846 16.405 12.0256 16.7562 10.84 16.7563C9.24628 16.7493 7.72022 16.1113 6.59575 14.982C5.47128 13.8526 4.83998 12.3237 4.83999 10.73Z" fill="#E6E6E6"/>
</g>
</svg>
